<svg width="45" height="45" fill="none" xmlns="http://www.w3.org/2000/svg"><path fill-rule="evenodd" clip-rule="evenodd" d="M37.269 8.802a.926.926 0 00-.015-.141.935.935 0 00-.03-.11l-.01-.027a.99.99 0 00-.044-.1l-.003-.004a.844.844 0 00-.06-.097l-.017-.024a.89.89 0 00-.077-.088L29.06.257a.897.897 0 00-.089-.076l-.023-.017a.838.838 0 00-.096-.06L28.845.1a.923.923 0 00-.235-.083.935.935 0 00-.113-.014L28.468 0H8.525a.879.879 0 00-.878.879v37.62c0 .484.393.878.878.878h13.233v4.744a.88.88 0 001.346.745l3.347-2.1 3.348 2.1a.88.88 0 001.346-.745v-4.744h5.247a.879.879 0 00.878-.879V8.832l-.001-.03zm-7.952-5.801l4.953 4.952h-4.953V3.001zm-7.993 24.146c-.062-.168-.162-.442-.165-.555.069-.085.307-.235.453-.327.313-.198.668-.423.926-.774.26-.354.365-.764.459-1.125.04-.158.107-.413.163-.51a1.1 1.1 0 01.218-.015c.097 0 .207.005.323.011.133.006.27.013.414.013.317 0 .572-.035.804-.113.404-.134.728-.395 1.014-.625.158-.127.422-.34.514-.353.1.013.365.226.523.353.285.23.61.49 1.014.625.232.078.487.113.804.113.143 0 .28-.006.414-.013.116-.006.225-.011.323-.011.122 0 .187.009.218.015.056.097.122.352.163.51.093.361.2.77.46 1.125.256.351.611.575.925.774.145.092.384.242.452.327-.002.113-.103.387-.164.555-.131.356-.279.76-.279 1.207 0 .447.148.851.278 1.207.062.168.163.443.165.555-.068.085-.307.235-.452.328-.314.198-.669.422-.926.773-.26.355-.366.764-.46 1.125-.04.158-.106.413-.162.51a1.105 1.105 0 01-.218.016c-.098 0-.207-.006-.323-.012a8.236 8.236 0 00-.414-.013 2.5 2.5 0 00-.804.113c-.405.134-.729.395-1.014.625-.156.126-.415.334-.519.353-.103-.019-.362-.227-.518-.353-.286-.23-.61-.49-1.014-.625a2.493 2.493 0 00-.804-.113c-.143 0-.28.007-.414.013-.116.006-.225.012-.323.012-.122 0-.187-.01-.218-.016-.056-.097-.122-.352-.163-.51-.093-.36-.2-.77-.46-1.125-.256-.351-.611-.575-.925-.773-.145-.092-.384-.243-.452-.328.002-.112.103-.387.164-.555.13-.356.279-.76.279-1.207 0-.447-.148-.851-.279-1.207zm8.063 15.385l-2.468-1.549a.88.88 0 00-.935 0l-2.469 1.55v-7.91c.094-.003.186-.006.274-.011a6.33 6.33 0 01.326-.012c.156 0 .223.015.248.023.105.035.306.197.468.328.41.33.92.74 1.62.74.7 0 1.21-.41 1.62-.74.162-.13.364-.293.468-.327a.867.867 0 01.249-.023c.099 0 .209.005.325.011.089.005.18.008.274.01v7.91zm1.758-4.913v-3.705c.261-.355.37-.775.463-1.132.048-.187.114-.444.175-.526.06-.082.283-.223.446-.326.433-.274.971-.614 1.185-1.257.212-.635-.008-1.235-.185-1.717-.08-.219-.172-.467-.172-.602 0-.135.091-.383.172-.602.177-.482.397-1.082.185-1.717-.214-.643-.752-.983-1.185-1.256-.163-.103-.386-.245-.446-.327-.06-.082-.127-.338-.175-.526-.127-.49-.284-1.098-.822-1.493-.429-.314-.925-.35-1.26-.35-.143 0-.28.007-.413.014-.116.005-.226.01-.325.01a.862.862 0 01-.249-.022c-.104-.035-.305-.197-.467-.327-.41-.33-.921-.741-1.62-.741-.7 0-1.21.41-1.621.74-.162.13-.363.293-.467.328a.865.865 0 01-.249.023c-.099 0-.21-.006-.325-.012-.133-.006-.27-.013-.412-.013-.336 0-.832.036-1.26.35-.54.395-.697 1.004-.823 1.493-.049.188-.115.444-.175.526-.06.082-.284.224-.447.327-.432.273-.97.613-1.185 1.256-.211.635.009 1.235.186 1.717.08.219.171.467.171.602 0 .135-.09.383-.171.602-.177.482-.397 1.082-.186 1.717.215.643.753.983 1.185 1.257.164.103.387.244.447.326.06.082.127.339.175.526.092.357.202.778.463 1.132v3.705H9.404V1.758H27.56v7.074c0 .486.393.88.878.88h7.075v27.907h-4.368z" fill="#fff"/><path fill-rule="evenodd" clip-rule="evenodd" d="M12.82 9.711h11.323a.88.88 0 000-1.758H12.82a.879.879 0 100 1.758zm19.375 2.679H12.82a.879.879 0 100 1.758h19.375a.879.879 0 100-1.758zm-3.515 4.436H12.82a.879.879 0 000 1.758h15.86a.879.879 0 100-1.758zm3.515 0a.88.88 0 00-.879.88.88.88 0 00.88.878.88.88 0 00.878-.879.88.88 0 00-.879-.879z" fill="#fff"/></svg>