<svg width="30" height="30" fill="none" xmlns="http://www.w3.org/2000/svg"><path fill-rule="evenodd" clip-rule="evenodd" d="M24.846 5.868V5.85a.61.61 0 00-.03-.148l-.007-.018a.638.638 0 00-.029-.066l-.002-.004a.586.586 0 00-.04-.064l-.012-.016a.597.597 0 00-.05-.06L19.372.173a.586.586 0 00-.059-.051L19.297.11a.553.553 0 00-.064-.04L19.23.067a.608.608 0 00-.157-.056.62.62 0 00-.075-.01h-.02L18.96 0H5.684a.586.586 0 00-.586.586v25.08c0 .323.262.585.586.585h8.821v3.163a.586.586 0 00.898.496l2.231-1.4 2.232 1.4a.586.586 0 00.897-.496v-3.163h3.498a.586.586 0 00.586-.586V5.888l-.001-.02zm-5.301-3.867l3.301 3.301h-3.301V2.001zm-5.329 16.097c-.041-.112-.108-.295-.11-.37.046-.056.205-.157.302-.218.209-.132.446-.282.617-.516.173-.236.244-.51.306-.75.027-.105.071-.275.109-.34a.73.73 0 01.145-.01c.065 0 .138.003.216.007.088.005.18.01.276.01.21 0 .381-.025.535-.076.27-.09.486-.264.677-.417.105-.084.281-.226.342-.235.067.008.244.15.349.235.19.154.406.327.676.417.155.051.325.075.536.075.095 0 .187-.004.276-.009a4.45 4.45 0 01.216-.007c.08 0 .124.006.145.01.037.065.081.235.108.34.063.24.133.514.306.75.172.234.409.384.617.516.098.061.256.162.302.218-.001.075-.069.258-.11.37-.087.237-.185.506-.185.805 0 .298.098.567.185.805.041.112.109.294.11.37-.046.056-.204.156-.302.218-.209.132-.445.281-.617.515-.173.237-.243.51-.306.75a1.9 1.9 0 01-.108.34.731.731 0 01-.145.01 4.45 4.45 0 01-.216-.007 5.496 5.496 0 00-.276-.009 1.66 1.66 0 00-.536.076c-.27.09-.486.263-.676.416-.104.084-.277.223-.346.235-.069-.012-.242-.15-.345-.235-.19-.153-.407-.327-.677-.416a1.661 1.661 0 00-.535-.076c-.096 0-.188.005-.276.01-.078.003-.15.007-.216.007a.731.731 0 01-.145-.01 1.894 1.894 0 01-.109-.34c-.062-.241-.133-.514-.306-.75-.171-.235-.408-.384-.617-.516-.097-.061-.256-.162-.302-.219.002-.074.07-.258.11-.37.087-.237.186-.506.186-.804 0-.299-.099-.568-.186-.805zm5.375 10.257l-1.645-1.033a.587.587 0 00-.623 0l-1.646 1.033v-5.273l.183-.007c.077-.004.15-.008.217-.008.104 0 .148.01.165.015.07.024.204.132.312.218.273.22.614.494 1.08.494.467 0 .807-.274 1.08-.494.108-.086.242-.194.312-.218a.574.574 0 01.166-.015c.066 0 .14.004.217.008l.182.007v5.273zm1.172-3.276v-2.47c.174-.236.247-.516.309-.754.032-.125.076-.296.117-.35.04-.056.189-.15.297-.219.289-.182.648-.409.79-.838.141-.423-.006-.823-.123-1.144-.054-.146-.115-.311-.115-.401 0-.09.061-.256.114-.402.118-.321.265-.721.124-1.144-.142-.429-.501-.656-.79-.838-.108-.069-.258-.163-.297-.217-.04-.055-.085-.226-.117-.351-.084-.326-.19-.732-.548-.996-.286-.209-.617-.233-.84-.233-.095 0-.187.005-.275.009-.078.004-.151.008-.217.008a.578.578 0 01-.166-.016c-.07-.023-.203-.13-.311-.218-.274-.22-.614-.494-1.08-.494-.467 0-.808.274-1.081.494-.108.087-.242.195-.312.218a.579.579 0 01-.165.016c-.066 0-.14-.004-.217-.008a4.84 4.84 0 00-.275-.01c-.224 0-.555.025-.84.234-.36.264-.464.67-.548.996-.033.125-.077.296-.117.35-.04.055-.19.15-.298.218-.288.182-.647.41-.79.838-.14.423.006.823.124 1.144.053.146.114.311.114.402 0 .09-.06.255-.114.401-.118.321-.265.721-.124 1.145.143.428.502.655.79.837.11.07.258.163.298.218.04.055.084.226.117.35.061.239.134.52.308.756v2.47H6.27V1.171h12.103v4.716c0 .324.262.586.586.586h4.716V25.08h-2.912z" fill="#fff"/><path fill-rule="evenodd" clip-rule="evenodd" d="M8.547 6.474h7.549a.586.586 0 000-1.172h-7.55a.586.586 0 100 1.172zM21.463 8.26H8.547a.586.586 0 100 1.172h12.916a.586.586 0 100-1.172zm-2.343 2.957H8.547a.586.586 0 000 1.172H19.12a.586.586 0 100-1.172zm2.343 0a.587.587 0 000 1.172.587.587 0 000-1.172z" fill="#fff"/></svg>